<!DOCTYPE svg PUBLIC "-//W3C//DTD SVG 20010904//EN" "http://www.w3.org/TR/2001/REC-SVG-20010904/DTD/svg10.dtd">
<svg version="1.0" xmlns="http://www.w3.org/2000/svg" width="1024px" height="1024px" viewBox="0 0 10240 10240" preserveAspectRatio="xMidYMid meet">
<g id="layer101" fill="#ac1924" stroke="none">
 <path d="M560 8826 l0 -44 53 -7 c66 -9 100 -26 128 -66 43 -60 49 -120 49 -495 l0 -350 -38 -60 c-21 -32 -47 -74 -58 -91 -10 -18 -93 -152 -184 -298 -91 -146 -192 -310 -225 -363 -117 -190 -168 -246 -243 -267 -35 -10 -37 -13 -40 -58 l-3 -47 606 0 606 0 -3 47 c-3 44 -5 47 -42 57 -102 29 -106 131 -11 286 12 19 35 60 52 90 16 30 39 71 50 90 10 19 50 90 87 158 38 67 70 121 71 120 20 -26 262 -432 288 -483 92 -180 90 -239 -8 -264 l-45 -11 0 -45 0 -45 335 0 335 0 0 44 c0 42 -2 45 -37 57 -21 6 -56 24 -78 40 -74 51 -110 95 -240 299 -27 41 -77 120 -113 175 -116 179 -129 200 -146 230 -9 17 -45 75 -81 130 -35 55 -80 127 -100 161 l-35 61 0 329 c0 417 13 487 93 541 18 12 56 24 85 28 l52 7 0 44 0 44 -580 0 -580 0 0 -44z"/>
 <path d="M8252 7521 c-28 -7 -112 -58 -112 -67 0 -4 57 -94 137 -216 24 -38 48 -68 52 -68 5 0 6 38 4 84 -5 79 -4 84 18 100 60 42 152 4 214 -89 93 -138 95 -228 20 -675 -33 -199 -55 -339 -55 -359 0 -11 -9 -45 -21 -76 -15 -41 -26 -56 -45 -61 -13 -3 -24 -12 -24 -20 0 -12 36 -14 200 -14 166 0 200 2 200 14 0 8 -14 17 -30 21 -17 4 -35 15 -40 25 -13 24 -13 92 0 178 20 137 49 369 56 440 l7 72 94 -167 c52 -93 107 -190 122 -218 16 -27 51 -89 79 -138 28 -48 57 -106 64 -128 11 -37 10 -43 -7 -55 -10 -8 -25 -14 -33 -14 -7 0 -12 -6 -10 -12 4 -10 47 -14 161 -16 169 -3 190 4 114 37 -65 28 -83 55 -317 466 -91 161 -102 179 -110 190 -4 6 -21 35 -37 65 -32 59 -50 91 -105 185 -20 33 -47 80 -60 105 -100 179 -146 246 -214 311 -32 30 -80 65 -106 78 -51 24 -161 36 -216 22z"/>
 <path d="M3500 7154 c-467 -86 -820 -344 -1021 -745 -52 -103 -75 -166 -106 -289 -25 -97 -27 -121 -27 -310 0 -191 1 -213 27 -315 64 -255 171 -448 351 -633 189 -194 395 -312 666 -380 96 -24 122 -26 305 -26 175 0 212 3 295 23 398 98 716 340 902 687 62 117 83 170 121 314 30 111 31 123 31 325 1 197 -1 217 -26 315 -61 232 -149 404 -301 581 -140 163 -367 317 -574 389 -154 53 -209 61 -418 65 -110 2 -211 1 -225 -1z m204 -170 c5 -14 1 -16 -25 -10 -17 3 -43 6 -58 7 l-26 1 25 8 c43 14 77 11 84 -6z m-179 -20 c-45 -17 -49 -18 -89 -16 -24 2 -27 4 -16 17 9 11 32 15 79 15 l66 -1 -40 -15z m149 -43 c3 -4 -6 -23 -19 -41 -13 -18 -26 -37 -28 -43 -2 -6 -15 -2 -31 8 -23 15 -27 24 -22 46 4 23 1 28 -17 32 -12 2 8 5 45 6 37 0 69 -3 72 -8z m-90 -136 c3 -8 -5 -29 -17 -47 -13 -18 -35 -57 -51 -87 -15 -30 -52 -85 -82 -122 -74 -93 -74 -117 4 -190 31 -30 72 -66 91 -80 l33 -26 -43 -11 c-24 -7 -50 -16 -58 -21 -10 -6 -28 1 -60 24 -25 18 -63 38 -83 46 -21 7 -38 16 -38 21 0 4 -13 22 -29 40 -64 74 -71 121 -22 147 10 6 38 43 62 83 69 117 215 250 264 240 13 -2 26 -10 29 -17z m-582 -398 c-18 -5 -46 -25 -62 -44 -21 -23 -38 -33 -59 -33 -36 0 -45 19 -19 42 11 9 18 20 16 25 -3 7 71 19 132 20 21 1 20 -1 -8 -10z m77 -61 c50 -34 50 -35 33 -56 l-17 -21 -45 30 c-25 17 -55 31 -67 31 -13 0 -23 4 -23 8 0 6 34 27 66 41 1 1 25 -14 53 -33z m1791 0 c0 -8 -14 -18 -32 -21 -18 -4 -46 -14 -63 -22 -37 -19 -23 -5 30 31 44 29 65 33 65 12z m-1603 -66 c66 -21 86 -31 171 -93 29 -21 75 -45 101 -53 27 -8 54 -21 61 -29 7 -8 17 -15 22 -15 11 0 -1 42 -15 51 -20 13 33 29 97 29 54 0 69 -4 94 -25 81 -68 21 -175 -99 -175 -65 0 -182 32 -251 69 -40 22 -84 42 -98 46 -48 14 -200 135 -200 159 0 11 40 56 49 56 3 0 34 -9 68 -20z m1613 10 c0 -5 -10 -10 -22 -10 -13 0 -34 -7 -48 -15 -14 -8 -35 -19 -47 -24 -12 -6 -41 -27 -65 -48 l-43 -38 34 40 c19 22 37 40 40 40 3 0 18 9 33 19 21 14 70 33 116 45 1 1 2 -3 2 -9z m-1281 -99 c11 -7 10 -11 -7 -20 -29 -15 -77 -14 -91 3 -11 12 -5 15 31 19 24 2 45 4 48 5 3 1 11 -2 19 -7z m1255 -36 c-5 -11 2 -15 27 -16 19 -1 -2 -5 -47 -10 -113 -12 -179 -45 -262 -130 -76 -77 -161 -132 -241 -155 -43 -13 -79 -15 -185 -9 -101 6 -125 10 -106 17 14 6 67 7 121 4 108 -7 189 1 189 18 0 8 -24 10 -77 8 -43 -2 -75 -1 -72 3 4 3 52 12 106 19 127 17 187 44 283 130 76 69 128 101 190 122 52 18 81 17 74 -1z m-235 -51 c-18 -20 -47 -45 -64 -57 -16 -11 -3 5 30 36 68 64 86 75 34 21z m-698 -61 c9 -28 8 -43 -5 -78 -27 -69 -41 -76 -105 -49 l-54 22 31 7 c17 3 46 20 63 36 29 27 31 33 27 79 -5 48 -4 50 13 34 10 -9 23 -32 30 -51z m-420 -71 c-16 -5 -41 5 -41 17 0 7 10 6 26 -1 15 -7 21 -14 15 -16z m52 -49 c-13 -2 -35 -2 -50 0 -16 2 -5 4 22 4 28 0 40 -2 28 -4z m221 -33 c36 -11 68 -26 72 -32 5 -7 3 -8 -7 -2 -8 4 -50 18 -94 30 -44 13 -70 23 -59 23 12 1 51 -8 88 -19z m-533 -23 c2 5 25 -17 52 -49 l47 -57 -26 -17 c-25 -17 -28 -17 -61 1 -36 20 -85 76 -96 110 -6 17 -5 17 9 -2 18 -26 39 -31 30 -8 -3 8 -1 15 5 15 6 0 8 7 5 17 -6 15 -5 15 13 -1 10 -9 21 -13 22 -9z m449 -2 c109 -26 130 -35 130 -56 0 -31 -23 -33 -118 -11 -49 12 -112 24 -140 28 -46 6 -52 9 -52 30 0 23 4 24 58 24 31 0 86 -7 122 -15z m240 -60 c-14 -8 -29 -14 -35 -14 -5 0 1 6 15 14 14 8 30 14 35 14 6 0 -1 -6 -15 -14z m-252 -36 c35 -11 -47 -2 -98 11 -28 8 -25 8 18 4 29 -3 65 -10 80 -15z m-91 -19 c140 -19 213 -47 213 -82 0 -5 -23 3 -51 17 -29 15 -90 33 -142 41 -51 8 -96 19 -101 24 -12 12 -14 12 81 0z m-222 -30 c-10 -11 -22 -20 -26 -20 -5 0 2 10 14 23 27 28 38 25 12 -3z m120 -5 c39 -8 91 -15 118 -15 46 0 47 0 47 -33 0 -18 -7 -43 -16 -55 -13 -19 -22 -22 -52 -16 -66 10 -136 36 -170 61 -32 24 -32 24 -15 48 10 14 18 25 18 25 0 0 32 -7 70 -15z m404 -11 c-15 -19 -4 -75 23 -109 16 -20 23 -24 29 -13 7 11 9 10 9 -1 0 -8 10 -26 23 -40 12 -14 -2 -6 -30 18 -37 30 -56 54 -64 81 -12 41 -5 95 12 85 7 -5 6 -12 -2 -21z m68 -12 c-10 -10 -17 -36 -18 -58 0 -31 -2 -35 -9 -19 -20 47 -6 95 29 95 12 0 11 -3 -2 -18z m-749 -31 c32 -30 42 -45 41 -67 l-2 -29 -4 28 c-2 15 -8 27 -12 27 -4 0 -21 13 -37 30 -16 16 -39 30 -52 30 -13 0 -20 4 -17 10 12 19 41 10 83 -29z m577 -33 c40 -27 49 -39 47 -58 -6 -53 -73 -86 -115 -56 -66 46 -64 43 -39 86 12 21 22 48 22 60 0 24 3 22 85 -32z m603 -9 l83 -61 -22 -24 c-13 -14 -28 -23 -34 -22 -25 7 -115 64 -115 73 0 6 -6 21 -13 35 -27 52 -28 60 -4 60 12 0 59 -28 105 -61z m-1257 -4 c11 -4 27 -1 36 7 14 11 15 11 11 -2 -3 -10 -20 -16 -48 -18 -36 -3 -42 -1 -36 13 3 9 7 24 7 33 1 11 3 8 6 -5 2 -12 13 -25 24 -28z m1099 5 l21 -40 -27 -26 -26 -27 -17 29 c-10 16 -26 36 -35 44 -17 13 -16 16 10 37 40 32 50 29 74 -17z m-1160 -55 c0 -26 -7 -37 -32 -54 -18 -11 -46 -30 -62 -40 -21 -14 -34 -17 -47 -10 -10 5 -32 9 -50 9 -30 0 -31 1 -16 23 13 19 22 22 68 19 47 -3 57 0 78 22 19 20 23 32 18 60 -3 19 -2 37 1 41 12 12 42 -37 42 -70z m-120 20 c-7 -8 -17 -15 -23 -15 -6 0 -2 8 9 19 22 21 33 19 14 -4z m39 -29 c-9 -8 -10 -7 -5 7 3 10 7 26 7 35 1 9 4 6 6 -7 3 -13 -1 -28 -8 -35z m531 22 c30 -5 59 -14 65 -19 5 -5 15 -9 23 -9 8 0 28 -11 46 -25 17 -14 45 -36 61 -50 17 -13 27 -26 24 -29 -3 -4 -29 -2 -57 4 -40 9 -61 8 -101 -4 -73 -21 -140 -64 -147 -92 -6 -22 -10 -24 -43 -18 -63 10 -68 13 -108 67 l-39 53 41 31 c59 46 73 50 80 20 4 -14 14 -28 22 -31 12 -5 14 -1 10 16 -9 33 30 111 52 103 9 -4 41 -11 71 -17z m-295 -26 c4 -16 2 -24 -10 -28 -23 -9 -28 0 -20 36 7 33 18 31 30 -8z m901 7 c19 -22 19 -22 -3 -10 -24 12 -39 31 -25 31 5 0 17 -10 28 -21z m-39 -31 c38 -37 41 -53 13 -68 -17 -9 -20 -8 -20 8 0 10 -9 34 -19 55 -23 45 -17 47 26 5z m-802 2 c-3 -5 -20 -19 -38 -30 -32 -22 -32 -22 3 9 37 32 45 37 35 21z m771 -68 c4 -18 4 -36 0 -39 -3 -4 -6 4 -6 16 0 12 -9 41 -21 64 -20 42 -20 42 0 17 11 -14 23 -40 27 -58z m608 59 c-18 -11 -38 -28 -45 -39 -19 -26 -54 -36 -80 -21 -22 11 -22 12 -4 25 10 8 31 14 47 14 15 0 42 9 60 20 18 11 38 20 43 20 6 0 -4 -9 -21 -19z m-822 -31 c-18 -17 -37 -30 -44 -30 -10 0 61 58 72 59 3 0 -10 -13 -28 -29z m119 1 c64 -65 15 -152 -68 -120 -15 5 -37 22 -48 36 l-21 25 41 43 c22 23 46 43 53 44 8 0 27 -12 43 -28z m750 -8 c12 -16 12 -17 -1 -6 -8 6 -26 13 -40 16 l-25 4 26 2 c15 0 33 -7 40 -16z m-1462 -84 c37 -46 35 -60 -6 -34 -36 24 -52 46 -46 62 8 21 18 16 52 -28z m1436 32 c10 -18 -17 -23 -33 -7 -15 15 -15 16 5 16 12 0 24 -4 28 -9z m-930 -48 c27 -14 72 -53 61 -53 -2 0 -27 11 -54 25 -80 40 -196 30 -254 -22 -10 -9 -18 -12 -18 -6 0 18 36 43 91 63 60 21 122 19 174 -7z m-880 8 c3 -5 -2 -16 -10 -24 -8 -9 -13 -22 -10 -29 3 -8 2 -31 -2 -52 l-8 -38 -23 44 c-22 44 -28 88 -15 101 10 10 61 8 68 -2z m1435 -15 c0 -10 -12 -12 -50 -8 -36 3 -57 0 -77 -13 -26 -16 -27 -16 -12 0 29 30 139 47 139 21z m420 -42 c0 -8 -4 -12 -10 -9 -5 3 -10 13 -10 21 0 8 5 12 10 9 6 -3 10 -13 10 -21z m-985 -8 c17 -12 13 -13 -31 -9 -30 3 -66 -1 -93 -10 -43 -15 -71 -13 -71 4 0 28 160 40 195 15z m718 -30 c30 -24 67 -51 83 -59 16 -9 24 -16 18 -17 -7 0 -38 18 -70 40 -81 55 -111 80 -97 80 7 0 36 -20 66 -44z m-1491 17 c23 -20 23 -47 1 -64 -15 -11 -16 -11 -5 1 18 21 15 47 -10 64 -12 9 -18 16 -14 16 5 0 18 -7 28 -17z m1168 4 c0 -2 -12 -14 -26 -28 l-27 -24 18 28 c14 22 35 36 35 24z m-989 -39 c-30 -20 -68 -18 -56 2 7 12 67 29 79 22 4 -2 -6 -13 -23 -24z m123 11 c20 -19 -1 -17 -29 2 -28 19 -28 20 -5 14 14 -4 29 -11 34 -16z m-316 -7 c3 -9 -3 -13 -19 -10 -12 1 -24 9 -27 16 -3 9 3 13 19 10 12 -1 24 -9 27 -16z m1237 -2 c-52 -25 -68 -25 -30 0 17 11 39 20 50 20 13 -1 7 -7 -20 -20z m-458 -5 c2 -6 -17 -10 -44 -10 -27 0 -58 -4 -70 -8 -15 -5 -23 -5 -23 3 0 6 10 15 23 20 28 12 109 8 114 -5z m583 -5 c0 -13 -20 -13 -40 0 -12 8 -9 10 13 10 15 0 27 -4 27 -10z m-1120 -24 c-30 -6 -61 -15 -67 -19 -7 -5 -13 -5 -13 -2 0 12 66 34 100 34 30 -1 26 -3 -20 -13z m1595 -1 c-63 -18 -66 -18 -35 0 14 8 39 14 55 14 24 0 20 -3 -20 -14z m-1255 -10 c17 -9 30 -20 30 -25 0 -6 -11 -3 -25 6 -20 13 -39 15 -83 11 l-57 -5 45 13 c59 17 57 17 90 0z m438 -2 c31 -4 40 -9 29 -14 -14 -8 -107 16 -107 28 0 3 8 2 17 -1 9 -4 37 -10 61 -13z m-1033 -31 c-7 -8 -65 13 -65 23 0 9 9 8 34 -4 18 -9 33 -17 31 -19z m803 22 c25 -17 52 -74 52 -110 0 -21 -2 -22 -31 -12 -26 9 -33 7 -51 -11 -19 -21 -19 -23 -2 -42 9 -10 31 -19 48 -20 l31 -1 -30 -13 c-43 -20 -58 -19 -50 5 4 14 1 22 -10 27 -19 7 -37 -15 -30 -34 2 -7 3 -13 2 -13 -1 0 -22 7 -47 14 -42 14 -43 15 -14 15 18 1 42 10 55 22 23 20 23 20 3 16 -17 -4 -20 -1 -17 14 7 25 -22 35 -58 22 -29 -11 -29 -11 -29 26 0 36 19 74 48 99 22 17 103 15 130 -4z m516 6 c-27 -4 -69 -19 -92 -34 -45 -28 -52 -31 -52 -18 0 5 17 21 37 35 32 23 48 27 98 26 l60 -1 -51 -8z m241 -20 c37 -16 83 -31 103 -32 36 -1 36 -1 5 -5 -41 -5 -98 11 -148 42 -53 33 -41 31 40 -5z m-1765 -16 c22 -9 50 -30 61 -46 l22 -30 -39 22 c-85 46 -119 70 -102 70 10 0 36 -7 58 -16z m735 6 c-3 -5 -23 -9 -43 -9 l-37 2 35 7 c52 11 52 11 45 0z m455 -6 c22 -9 26 -12 10 -9 -14 2 -38 5 -53 5 -16 0 -26 4 -22 10 8 13 22 12 65 -6z m369 2 c-2 -2 -26 -6 -54 -9 -32 -4 -43 -3 -30 3 19 8 93 14 84 6z m-1010 -22 c13 -12 -10 -11 -44 2 l-40 15 40 -7 c22 -3 42 -8 44 -10z m1201 -4 c22 -11 57 -24 77 -29 30 -7 33 -9 12 -10 -31 -1 -83 16 -124 41 -41 24 -14 23 35 -2z m-1587 4 c8 -8 -3 -34 -14 -34 -5 0 -9 9 -9 20 0 19 11 26 23 14z m1079 -24 c66 -9 22 -12 -61 -4 -33 4 -61 11 -61 16 0 5 16 6 35 2 19 -3 58 -10 87 -14z m-944 -12 c-21 -31 -94 -68 -134 -68 -57 0 -46 17 25 39 37 12 76 28 87 36 28 21 38 18 22 -7z m472 12 c0 -5 -12 -10 -26 -10 -14 0 -34 -5 -44 -10 -12 -6 -21 -6 -25 -1 -3 6 14 14 37 19 58 13 58 13 58 2z m790 0 c0 -5 -9 -10 -20 -10 -12 0 -43 -11 -70 -25 -58 -29 -60 -30 -60 -11 0 8 23 23 53 35 57 22 97 27 97 11z m163 -12 c23 -12 56 -25 72 -29 27 -6 28 -7 5 -8 -24 -1 -130 43 -130 54 0 9 9 6 53 -17z m-1188 -1 c16 -12 12 -15 -42 -29 -58 -14 -61 -14 -72 5 -10 16 -10 21 1 28 20 13 92 10 113 -4z m1405 -2 c0 -7 -61 -37 -66 -32 -3 2 10 12 28 20 37 19 38 19 38 12z m-239 -33 c14 -9 48 -32 74 -49 39 -27 44 -33 26 -33 -27 0 -54 14 -103 52 -54 42 -51 67 3 30z m-1386 -12 c-13 -21 -89 -50 -130 -49 l-40 1 49 8 c26 5 64 20 85 33 37 25 49 27 36 7z m1636 4 c-25 -8 -47 -12 -49 -9 -5 5 56 23 78 23 8 0 -5 -6 -29 -14z m-1931 -4 c12 -8 12 -10 -5 -9 -11 0 -29 4 -40 9 -18 8 -18 9 5 9 14 0 32 -4 40 -9z m1311 -16 c12 -15 9 -16 -31 -9 -68 11 -83 24 -29 25 31 0 51 -5 60 -16z m-461 -14 c11 -8 7 -9 -14 -4 -22 5 -27 4 -21 -6 5 -9 4 -11 -3 -6 -7 4 -12 11 -12 17 0 12 31 11 50 -1z m1008 -7 c-10 -2 -26 -2 -35 0 -10 3 -2 5 17 5 19 0 27 -2 18 -5z m-167 -19 c16 -19 84 -55 124 -65 l30 -7 -35 -1 c-19 0 -48 8 -65 18 -46 29 -91 70 -79 71 6 0 17 -7 25 -16z m-1552 -40 c9 -8 -45 -2 -64 6 -14 7 -8 8 20 3 22 -3 42 -7 44 -9z m199 4 c-3 -7 -28 -25 -57 -40 -39 -21 -67 -28 -105 -27 -50 1 -50 1 -16 10 84 22 117 34 140 51 29 21 43 23 38 6z m571 -37 c9 -6 10 -11 2 -15 -6 -4 -11 -3 -11 3 0 5 -8 12 -17 14 -13 3 -14 5 -3 6 8 0 21 -3 29 -8z m91 -16 c0 -14 -4 -25 -9 -25 -4 0 -6 11 -3 25 2 14 6 25 8 25 2 0 4 -11 4 -25z m-957 -2 c-13 -2 -33 -2 -45 0 -13 2 -3 4 22 4 25 0 35 -2 23 -4z m1074 -13 c14 -11 22 -20 18 -20 -4 0 -18 9 -32 20 -14 11 -22 20 -18 20 4 0 18 -9 32 -20z m-327 -25 c38 -19 60 -63 59 -112 -1 -26 -3 -30 -6 -13 -14 85 -41 119 -101 130 -31 7 -33 8 -9 9 15 0 41 -6 57 -14z m300 0 c20 -24 6 -28 -15 -5 -10 11 -13 20 -8 20 6 0 16 -7 23 -15z m-24 -32 c15 -20 23 -33 16 -29 -13 8 -56 66 -49 66 3 0 17 -17 33 -37z m-831 17 c-11 -5 -45 -8 -75 -8 l-55 1 60 7 c87 10 92 10 70 0z m525 -9 c0 -5 -7 -12 -16 -15 -24 -9 -28 -7 -14 9 14 17 30 20 30 6z m30 -25 c0 -2 -12 -12 -27 -21 l-28 -18 19 21 c17 20 36 29 36 18z m185 -27 c9 -17 15 -33 13 -35 -3 -2 -12 12 -21 31 -21 43 -13 47 8 4z m-189 -27 c-16 -15 -25 -20 -21 -12 13 25 38 50 44 45 3 -3 -8 -18 -23 -33z m264 -21 c0 -11 -3 -11 -14 -1 -8 6 -12 18 -9 27 5 12 7 12 14 1 5 -7 9 -19 9 -27z m-143 -68 c-3 -10 -5 -2 -5 17 0 19 2 27 5 18 2 -10 2 -26 0 -35z m-66 -40 c-9 -16 -10 -15 -11 8 0 14 3 29 8 33 12 12 14 -22 3 -41z m129 9 c0 -21 -2 -24 -10 -12 -13 20 -13 53 0 45 6 -3 10 -18 10 -33z"/>
 <path d="M3652 5198 c-28 -14 -24 -30 9 -38 20 -5 21 -7 7 -13 -32 -12 -19 -24 28 -25 49 0 57 17 13 29 -24 7 -24 7 4 8 33 1 35 14 5 35 -26 18 -34 19 -66 4z"/>
 <path d="M9385 7096 c-68 -21 -104 -45 -129 -84 -38 -57 -42 -102 -17 -180 62 -192 236 -304 615 -398 77 -19 143 -40 148 -46 12 -21 21 -97 15 -135 -12 -69 -32 -78 -165 -78 l-117 0 -86 43 c-68 34 -101 58 -155 115 -38 40 -74 81 -80 92 -20 34 -27 9 -11 -37 14 -41 33 -102 73 -231 13 -46 20 -57 33 -51 34 14 62 16 93 4 122 -44 200 -61 313 -66 159 -9 223 4 279 56 l41 39 4 91 c2 67 -3 117 -18 186 -12 52 -30 138 -42 192 -11 53 -29 136 -40 183 -33 150 -21 222 41 254 17 9 30 22 30 30 0 13 -23 15 -136 15 l-135 0 -15 -35 c-7 -19 -14 -56 -14 -83 l0 -48 -45 42 c-121 112 -344 173 -480 130z m341 -149 c104 -53 190 -184 234 -356 11 -44 20 -82 20 -85 0 -16 -193 46 -280 90 -145 72 -230 171 -230 267 0 57 11 81 48 102 41 23 144 14 208 -18z"/>
 <path d="M5900 7076 c0 -8 14 -19 30 -25 58 -20 60 -70 20 -426 -25 -220 -57 -512 -70 -645 -6 -58 -16 -123 -21 -145 -11 -43 -44 -85 -66 -85 -7 0 -13 -7 -13 -15 0 -13 31 -15 220 -15 174 0 220 3 220 13 0 7 -16 19 -36 26 -47 17 -74 62 -74 126 0 27 7 117 15 200 14 149 25 270 46 520 6 72 13 154 16 184 l5 54 32 -59 c36 -65 83 -151 126 -229 15 -27 85 -153 155 -280 187 -337 195 -353 216 -412 23 -67 13 -101 -31 -110 -17 -3 -29 -11 -27 -17 2 -7 63 -12 185 -14 144 -2 181 0 177 10 -3 7 -22 20 -43 29 -47 20 -96 79 -152 184 -23 44 -66 121 -95 170 -104 180 -450 791 -472 835 -30 60 -29 88 2 102 56 25 19 33 -173 36 -161 2 -192 0 -192 -12z"/>
 <path d="M6700 7076 c0 -8 16 -20 35 -26 46 -15 86 -64 107 -130 10 -30 36 -140 58 -245 22 -104 50 -230 61 -280 11 -49 23 -119 26 -155 5 -57 2 -69 -17 -92 -12 -16 -30 -28 -41 -28 -24 0 -25 -27 -1 -34 32 -9 303 -29 309 -22 4 3 1 30 -6 59 -7 28 -21 93 -31 142 -11 50 -29 133 -40 185 -107 485 -114 536 -85 577 8 11 26 24 40 27 14 4 25 13 25 21 0 13 -32 15 -220 15 -184 0 -220 -2 -220 -14z"/>
 <path d="M7670 7084 c-120 -12 -215 -49 -275 -109 -170 -171 -114 -558 112 -766 71 -66 141 -107 238 -140 64 -22 86 -24 247 -24 l177 0 16 -64 c9 -35 16 -93 16 -129 1 -57 -2 -69 -21 -84 -12 -10 -31 -18 -41 -18 -10 0 -19 -7 -19 -15 0 -8 1 -15 3 -15 1 0 38 -7 82 -15 44 -9 112 -20 150 -26 39 -5 78 -12 88 -15 23 -7 22 15 -3 119 -11 45 -31 136 -45 202 -31 145 -46 214 -79 365 -14 63 -34 160 -46 215 -12 55 -30 136 -40 180 -10 44 -24 114 -30 156 -15 91 -4 125 47 149 18 8 31 20 29 25 -2 9 -521 17 -606 9z m253 -100 l45 -7 16 -66 c8 -36 27 -120 41 -186 34 -159 49 -231 74 -342 29 -126 27 -155 -8 -195 -29 -33 -30 -33 -123 -33 -84 0 -99 3 -159 33 -167 81 -289 289 -289 494 0 102 20 158 79 214 71 70 200 105 324 88z"/>
 <path d="M7095 5907 c-31 -31 -35 -41 -35 -85 0 -64 11 -91 55 -140 83 -93 207 -67 222 47 4 31 -1 53 -21 96 -34 68 -81 106 -141 113 -41 4 -47 2 -80 -31z"/>
 <path d="M5980 5304 c-373 -48 -631 -188 -824 -446 -105 -141 -177 -299 -219 -478 -31 -135 -30 -374 2 -509 126 -537 609 -827 1326 -796 154 6 191 11 380 45 61 11 133 20 160 20 58 0 119 -26 154 -64 31 -34 41 -33 41 3 0 16 9 89 19 163 10 73 29 210 41 303 12 94 25 197 30 229 6 33 9 61 7 62 -1 1 -21 5 -43 9 -38 6 -42 4 -47 -17 -12 -46 -99 -179 -159 -244 -105 -112 -210 -178 -351 -220 -109 -33 -282 -34 -383 -3 -289 88 -458 386 -457 804 1 395 177 750 432 870 155 74 338 71 425 -6 68 -59 71 -82 71 -470 l0 -345 -27 -42 c-34 -51 -63 -70 -119 -80 l-44 -7 -3 -48 -3 -47 540 0 541 0 0 45 c0 28 -5 47 -12 49 -7 2 -35 9 -63 15 -28 7 -62 24 -78 39 -55 52 -59 88 -57 511 1 491 5 507 106 555 54 26 54 26 54 71 l0 45 -667 -1 c-503 -1 -694 -4 -773 -15z"/>
 <path d="M7680 3516 c0 -42 2 -45 38 -57 111 -37 183 -131 277 -364 20 -49 43 -108 50 -130 7 -22 23 -65 35 -95 12 -30 30 -77 40 -105 10 -27 39 -102 63 -165 24 -63 67 -178 96 -255 29 -77 69 -180 88 -230 20 -49 39 -101 43 -115 10 -30 39 -107 109 -288 48 -126 61 -191 43 -219 -4 -6 -20 -16 -35 -22 -24 -9 -27 -16 -27 -56 l0 -45 491 0 490 0 -3 48 c-3 41 -6 47 -26 50 -39 6 -53 53 -34 116 27 91 268 812 382 1146 61 179 126 370 144 425 62 188 120 271 207 300 49 17 49 17 49 61 l0 44 -580 0 -580 0 0 -44 c0 -43 0 -43 46 -56 91 -26 134 -83 134 -180 0 -255 -368 -550 -685 -550 l-81 0 -29 83 c-103 299 -128 378 -139 441 -20 116 7 187 78 201 66 13 66 14 66 61 l0 44 -375 0 -375 0 0 -44z m1311 -967 c-5 -13 -40 -118 -76 -234 -37 -115 -85 -264 -106 -329 -21 -66 -39 -127 -39 -135 -1 -14 -2 -14 -9 -1 -10 18 -191 558 -191 571 0 5 13 9 28 9 77 0 259 63 357 124 22 13 41 23 43 22 1 -2 -2 -14 -7 -27z"/>
 </g>

</svg>